<svg xmlns="http://www.w3.org/2000/svg" viewBox="0 0 880 560">
<defs><linearGradient id="g" x1="0" y1="0" x2="1" y2="1">
<stop offset="0" stop-color="#fff7ed"/><stop offset="1" stop-color="#ffedd5"/>
</linearGradient></defs>
<rect width="880" height="560" fill="url(#g)"/>

<rect x="450" y="80" width="330" height="200" fill="#fdba74" opacity="0.35"/>
<line x1="100" y1="280" x2="780" y2="280" stroke="#c2410c" stroke-width="3" stroke-dasharray="10 8"/>
<line x1="450" y1="80" x2="450" y2="480" stroke="#c2410c" stroke-width="3" stroke-dasharray="10 8"/>
<line x1="100" y1="480" x2="780" y2="480" stroke="#9a3412" stroke-width="4"/>
<line x1="100" y1="80" x2="100" y2="480" stroke="#9a3412" stroke-width="4"/>
<g fill="#fdba74"><circle cx="200" cy="400" r="12"/><circle cx="260" cy="430" r="10"/><circle cx="320" cy="370" r="11"/>
<circle cx="230" cy="330" r="9"/><circle cx="380" cy="420" r="10"/><circle cx="180" cy="360" r="8"/></g>
<g fill="#ea580c"><circle cx="380" cy="220" r="11"/><circle cx="300" cy="180" r="10"/><circle cx="520" cy="380" r="10"/></g>
<g fill="#c2410c"><circle cx="560" cy="180" r="14"/><circle cx="640" cy="140" r="16"/><circle cx="600" cy="230" r="12"/>
<circle cx="700" cy="190" r="13"/></g>

</svg>